<svg width="141" height="141" viewBox="0 0 141 141" fill="none" xmlns="http://www.w3.org/2000/svg">
<path d="M126.333 62.3333C133.733 62.3333 139.667 68.3333 139.667 75.6667C139.667 83 133.733 89 126.333 89H114.333L87.6667 62.3333H126.333ZM129.133 120.8V120.733L110.733 102.333H110.667L97.3333 89H97.4L70.7333 62.3333L57.4 49L8.93334 0.533325L0.400002 8.99999L20.4667 29C13 39 13 49 13 49H40.4L53.7333 62.3333H19.6667C12.3333 62.3333 6.33333 68.3333 6.33333 75.6667C6.33333 83 12.3333 89 19.6667 89H80.4L93.7333 102.333H13V109C13 120.067 21.9333 129 33 129H113C115.2 129 117.333 128.533 119.267 127.867L131.933 140.533L140.4 132.067L129.133 120.8ZM133 49C133 49 133 8.99999 73 8.99999C58.8667 8.99999 48.2 11.2667 40 14.6667L74.3333 49H133Z" fill="#40AF40"/>
</svg>
